<?xml version="1.0" standalone="no"?>
<!DOCTYPE svg PUBLIC "-//W3C//DTD SVG 20010904//EN"
 "http://www.w3.org/TR/2001/REC-SVG-20010904/DTD/svg10.dtd">
<svg version="1.0" xmlns="http://www.w3.org/2000/svg"
 width="960.000000pt" height="960.000000pt" viewBox="0 0 960.000000 960.000000"
 preserveAspectRatio="xMidYMid meet">
<metadata>
Created by potrace 1.14, written by Peter Selinger 2001-2017
</metadata>
<g transform="translate(0.000000,960.000000) scale(0.100000,-0.100000)"
fill="#000000" stroke="none">
<path d="M2545 8505 c-269 -157 -491 -288 -492 -292 -1 -4 1006 -645 2237
-1423 1232 -778 2240 -1417 2240 -1420 -1 -5 -909 -528 -984 -566 -23 -11
-370 -211 -773 -442 -402 -232 -735 -422 -739 -422 -4 0 -4 417 0 928 l7 927
-491 320 c-270 176 -494 321 -498 323 -4 1 -6 -372 -4 -830 2 -458 6 -1673 10
-2700 4 -1027 11 -1870 14 -1874 4 -3 240 127 525 289 520 296 942 535 2238
1272 385 219 912 518 1170 665 259 147 697 397 975 554 278 158 509 291 513
296 5 4 1 277 -9 605 l-18 597 -31 23 c-32 25 -5393 3455 -5397 3454 -2 0
-223 -128 -493 -284z"/>
</g>
</svg>
