<?xml version="1.0" standalone="no"?>
<!DOCTYPE svg PUBLIC "-//W3C//DTD SVG 20010904//EN"
 "http://www.w3.org/TR/2001/REC-SVG-20010904/DTD/svg10.dtd">
<svg version="1.0" xmlns="http://www.w3.org/2000/svg"
 width="288.000000pt" height="288.000000pt" viewBox="0 0 288.000000 288.000000"
 preserveAspectRatio="xMidYMid meet">
<metadata>
Created by potrace 1.14, written by Peter Selinger 2001-2017
</metadata>
<g transform="translate(0.000000,288.000000) scale(0.100000,-0.100000)"
fill="#000000" stroke="none">
<path d="M0 1440 l0 -1440 1440 0 1440 0 0 1440 0 1440 -1440 0 -1440 0 0
-1440z m2188 507 c195 -193 376 -378 403 -410 43 -51 49 -63 49 -105 l0 -46
-402 -404 c-281 -281 -412 -405 -433 -411 -64 -17 -129 25 -145 95 -5 21 -10
103 -10 181 l0 142 -663 3 c-614 3 -665 4 -690 21 -63 41 -62 36 -62 427 0
391 -1 386 62 427 25 17 76 18 690 21 l663 3 0 142 c0 78 4 159 9 180 17 72
81 113 146 95 20 -5 143 -121 383 -361z"/>
<path d="M1897 1811 c-6 -87 -19 -119 -64 -148 -25 -17 -76 -18 -690 -21
l-663 -3 0 -199 0 -199 663 -3 c614 -3 665 -4 690 -21 46 -30 59 -61 65 -153
l5 -86 223 223 c123 123 224 228 224 234 0 6 -101 111 -224 234 l-223 223 -6
-81z"/>
</g>
</svg>
