<?xml version="1.0" standalone="no"?>
<!DOCTYPE svg PUBLIC "-//W3C//DTD SVG 20010904//EN"
 "http://www.w3.org/TR/2001/REC-SVG-20010904/DTD/svg10.dtd">
<svg version="1.0" xmlns="http://www.w3.org/2000/svg"
 width="960.000000pt" height="960.000000pt" viewBox="0 0 960.000000 960.000000"
 preserveAspectRatio="xMidYMid meet">
<metadata>
Created by potrace 1.14, written by Peter Selinger 2001-2017
</metadata>
<g transform="translate(0.000000,960.000000) scale(0.100000,-0.100000)"
fill="#000000" stroke="none">
<path d="M0 4800 l0 -4800 4800 0 4800 0 0 4800 0 4800 -4800 0 -4800 0 0
-4800z m2830 2095 l0 -295 -405 0 -405 0 0 -1735 0 -1735 405 0 405 0 -2 -292
-3 -293 -737 -3 -738 -2 0 2325 0 2325 740 0 740 0 0 -295z m5400 -2030 l0
-2325 -737 2 -738 3 -3 293 -2 292 405 0 405 0 0 1735 0 1735 -405 0 -405 0 0
295 0 295 740 0 740 0 0 -2325z m-3210 1680 c0 -159 4 -255 10 -255 5 0 91 52
191 116 100 63 185 112 190 107 4 -4 48 -64 97 -133 l89 -125 -288 -193 -289
-192 0 -315 c0 -218 3 -315 11 -315 8 0 548 295 555 304 1 0 9 125 18 276 9
151 19 303 22 338 l6 62 169 0 c125 0 169 -3 169 -12 0 -7 -7 -99 -16 -206 -8
-106 -14 -204 -12 -217 3 -22 14 -17 213 95 116 66 213 119 216 120 6 0 179
-305 179 -314 0 -2 -87 -52 -192 -111 -106 -59 -204 -114 -217 -123 -24 -15
-21 -17 182 -119 l207 -103 -75 -150 -75 -149 -42 18 c-24 10 -159 76 -302
145 -142 69 -263 126 -268 126 -19 0 -557 -305 -550 -311 14 -14 542 -319 551
-319 5 0 98 43 208 96 109 53 244 118 300 144 l102 49 76 -135 c41 -74 74
-138 71 -142 -2 -4 -95 -52 -205 -107 -111 -55 -201 -102 -201 -106 0 -3 97
-64 215 -135 119 -71 214 -134 213 -139 -4 -16 -172 -285 -178 -285 -3 0 -99
54 -215 119 -196 110 -210 117 -213 95 -2 -12 4 -110 12 -216 9 -107 16 -199
16 -206 0 -9 -44 -12 -169 -12 l-169 0 -6 63 c-3 34 -13 186 -22 337 -9 151
-17 275 -18 276 -11 10 -549 304 -556 304 -6 0 -10 -117 -10 -315 l0 -315 289
-192 288 -193 -89 -125 c-49 -69 -93 -129 -98 -133 -4 -5 -90 43 -190 107
-100 64 -186 116 -191 116 -5 0 -9 -106 -9 -255 l0 -255 -177 2 -178 3 -3 253
c-1 138 -4 252 -7 252 -2 0 -86 -52 -186 -116 -119 -75 -185 -112 -191 -106
-6 6 -50 66 -98 133 l-88 124 284 189 284 189 0 319 c0 175 -3 318 -6 318 -4
0 -544 -297 -551 -304 0 0 -11 -149 -22 -329 -12 -181 -24 -333 -27 -338 -3
-5 -79 -9 -170 -9 -162 0 -164 0 -164 22 0 12 7 109 16 216 8 106 14 199 12
207 -2 8 -77 -29 -216 -107 -118 -66 -215 -118 -217 -116 -11 11 -175 279
-175 285 0 5 97 66 215 137 118 71 213 131 211 135 -3 3 -95 51 -205 106 -111
55 -201 104 -201 108 0 5 34 69 76 142 l75 133 142 -68 c78 -37 213 -102 301
-144 87 -42 163 -76 167 -76 9 0 538 306 551 318 6 6 -517 303 -546 310 -6 1
-148 -63 -315 -144 -166 -80 -304 -144 -306 -142 -5 6 -145 288 -145 293 0 3
93 51 206 108 l207 104 -34 20 c-19 11 -113 64 -209 118 -96 53 -179 101 -183
105 -12 11 162 322 177 317 6 -3 103 -57 216 -120 138 -78 206 -111 208 -102
2 8 -4 101 -12 207 -9 107 -16 204 -16 216 0 22 2 22 164 22 91 0 167 -4 170
-9 5 -8 46 -584 46 -647 0 -16 53 -50 274 -172 150 -84 276 -152 280 -152 3 0
6 143 6 318 l-1 317 -284 189 -285 189 23 31 c13 17 56 77 96 134 40 56 74
102 76 102 2 0 85 -52 184 -115 99 -63 182 -115 185 -115 4 0 6 112 6 248 0
137 3 252 7 255 3 4 84 7 180 7 l173 0 0 -255z"/>
</g>
</svg>
